<svg width="242" height="29" viewBox="0 0 242 29" fill="none" xmlns="http://www.w3.org/2000/svg">
<path id="logo" fill-rule="evenodd" clip-rule="evenodd" d="M25.558 3.53581C23.4157 3.53581 22.8641 2.98418 22.8641 0.841858C22.8641 2.98418 22.3125 3.53581 20.1701 3.53581C22.3125 3.53581 22.8641 4.08742 22.8641 6.22974C22.8641 4.08742 23.4157 3.53581 25.558 3.53581ZM28.5255 3.00981C28.5255 7.9316 29.7912 9.19732 34.713 9.19732C29.7912 9.19732 28.5255 10.463 28.5255 15.3848C28.5255 10.463 27.2598 9.19732 22.338 9.19732C27.2598 9.19732 28.5255 7.9316 28.5255 3.00981ZM239.453 16.7485C238.833 16.3765 238.149 16.184 237.396 16.184H223.798C223.636 16.184 223.503 16.1327 223.4 16.0301C223.298 15.9275 223.247 15.8077 223.247 15.6666V11.3136C223.247 11.1553 223.298 11.0228 223.4 10.9202C223.499 10.8175 223.631 10.7662 223.798 10.7662H241.505C241.505 8.7308 239.855 7.08449 237.824 7.08449H225.902L223.247 10.7662H219.595V15.7864C219.595 16.5389 219.779 17.2231 220.146 17.8432C220.51 18.4632 221.002 18.9592 221.622 19.3312C222.242 19.7075 222.926 19.8957 223.678 19.8957H237.246C237.409 19.8957 237.546 19.947 237.657 20.0496C237.768 20.148 237.824 20.272 237.824 20.4131H237.854V24.7662C237.854 24.9244 237.802 25.0569 237.7 25.1596C237.601 25.2622 237.469 25.3135 237.302 25.3135H219.595C219.595 27.3489 221.245 28.9952 223.276 28.9952H235.198L237.854 25.3135H241.505V20.2934C241.505 19.5408 241.317 18.8609 240.941 18.2408C240.565 17.6208 240.069 17.1248 239.449 16.7485H239.453ZM197.872 27.7594V7.08873H201.524V23.851L215.61 7.08873H220.442L202.409 28.5547C202.174 28.8327 201.828 28.9952 201.464 28.9952H199.108C198.424 28.9952 197.872 28.4436 197.872 27.7594ZM168.487 7.64053C169.107 8.004 169.603 8.50002 169.979 9.12861C170.356 9.75719 170.544 10.4456 170.544 11.1982V24.886C170.544 25.6343 170.351 26.3271 169.979 26.9557C169.603 27.5842 169.107 28.0803 168.487 28.4437C167.867 28.8115 167.183 28.9954 166.434 28.9954H148.637V10.7749H152.255L154.915 7.08891H166.434C167.183 7.08891 167.867 7.27279 168.487 7.64053ZM166.691 25.164C166.802 25.0571 166.858 24.9245 166.858 24.7663V11.318C166.858 11.1555 166.802 11.0272 166.691 10.9246C166.58 10.8219 166.443 10.7706 166.281 10.7706H152.832C152.67 10.7706 152.533 10.8219 152.422 10.9246C152.311 11.0272 152.255 11.1597 152.255 11.318V24.7663C152.255 24.9288 152.311 25.0613 152.422 25.164C152.533 25.2623 152.67 25.3136 152.832 25.3136H166.281C166.443 25.3136 166.58 25.2623 166.691 25.164ZM177.847 10.9244C177.745 11.027 177.694 11.1596 177.694 11.3178H177.689V19.947L180.319 16.184H190.894V19.9854H178.241C178.074 19.9854 177.942 20.0367 177.843 20.1394C177.741 20.242 177.689 20.3746 177.689 20.5328V28.9567L180.319 25.3135H194.122V28.9952H174.012V10.7704H177.668L180.323 7.08873H194.127V10.7704H178.245C178.078 10.7704 177.946 10.8218 177.847 10.9244ZM31.4505 28.9958L13.4182 7.5298C13.183 7.25186 12.8366 7.08937 12.4732 7.08937H10.117C9.43285 7.08937 8.88122 7.64098 8.88122 8.32515V28.9958H12.533V23.6764C12.533 23.5181 12.5843 23.3856 12.687 23.2829C12.7853 23.1803 12.9179 23.129 13.0846 23.129H21.6924L26.6228 28.9958H31.4505ZM15.1885 19.9861L12.533 22.8425V12.2292L19.0498 19.9861H15.1885ZM0 7.08918V28.9956H3.62185V7.08918H0ZM59.8695 9.17201C59.4932 8.55625 58.9972 8.06022 58.3771 7.68393C57.7614 7.30763 57.0772 7.11949 56.3246 7.11949H44.8005L42.1622 10.7755H38.5275V28.996H42.1793V21.9105C42.1793 21.748 42.2306 21.6155 42.3332 21.5171C42.4358 21.4102 42.5684 21.3589 42.7352 21.3589L56.3203 21.329C57.0729 21.329 57.7571 21.1451 58.3729 20.7816C58.9929 20.4139 59.4889 19.9178 59.8652 19.2893C60.2415 18.6607 60.4297 17.9808 60.4297 17.2496V11.2288C60.4297 10.4762 60.2415 9.79205 59.8652 9.17201H59.8695ZM56.7522 17.0999C56.7522 17.2624 56.6966 17.3949 56.5855 17.4933C56.47 17.5959 56.3332 17.6472 56.1749 17.6472H45.6301L42.1793 21.3589V11.3186C42.1793 11.1775 42.2349 11.0492 42.3461 10.938C42.4572 10.8269 42.5812 10.7713 42.7266 10.7713H56.1749C56.3332 10.7713 56.47 10.8269 56.5855 10.938C56.6966 11.0492 56.7522 11.1775 56.7522 11.3186V17.0999ZM83.8755 7.63665C84.4912 8.00011 84.9873 8.50041 85.3636 9.129C85.7399 9.75759 85.928 10.446 85.928 11.1986V28.9958H82.2463V21.4784H68.2335C68.0668 21.4784 67.9342 21.5297 67.8316 21.6366C67.7247 21.7392 67.6734 21.8718 67.6734 22.0385V28.9958H64.0216V11.1986C64.0216 11.0532 64.0301 10.9121 64.0429 10.7753H67.6605L70.316 7.08931H81.8187C82.5713 7.08931 83.2555 7.27318 83.8755 7.63665ZM71.0686 17.8309H82.2463V11.3184C82.2463 11.1559 82.1907 11.0233 82.0795 10.9207C81.9684 10.8223 81.8315 10.771 81.669 10.771H68.2207C68.0796 10.771 67.9513 10.8223 67.8401 10.9207C67.7289 11.0233 67.6734 11.1559 67.6734 11.3184V21.4784H67.6776L71.0686 17.8309ZM110.464 20.7816C111.084 20.4139 111.58 19.9178 111.957 19.2893C112.329 18.6607 112.517 17.9808 112.517 17.2496V11.2288C112.517 10.4762 112.329 9.79205 111.957 9.17201C111.58 8.55625 111.084 8.06022 110.464 7.68393C109.844 7.30763 109.16 7.11949 108.412 7.11949H96.8877L94.2494 10.7755H90.6104V28.996H94.2622V21.9148C94.2622 21.7523 94.3135 21.6155 94.4204 21.5128C94.5187 21.4102 94.6513 21.3589 94.8138 21.3589H94.8223L101.916 21.3418L108.318 28.996H112.427V28.1451L106.684 21.3332H108.412C109.16 21.329 109.844 21.1451 110.464 20.7816ZM97.7044 17.6472L94.2622 21.3503V17.1854H94.2665C94.2622 17.1598 94.2622 17.1298 94.2622 17.0999V11.3186C94.2622 11.1775 94.3178 11.0492 94.429 10.938C94.5401 10.8269 94.6684 10.7713 94.8095 10.7713H108.258C108.42 10.7713 108.557 10.8269 108.668 10.938C108.78 11.0492 108.835 11.1775 108.835 11.3186V17.0999C108.835 17.2624 108.78 17.3949 108.668 17.4933C108.557 17.5959 108.42 17.6472 108.258 17.6472H97.7044ZM136.843 7.63665C137.459 8.00011 137.955 8.50041 138.332 9.129C138.708 9.75759 138.896 10.446 138.896 11.1986V28.9958H135.214V21.4784H121.202C121.035 21.4784 120.898 21.5297 120.8 21.6323C120.693 21.7349 120.641 21.8718 120.641 22.0343V28.9958H116.99V11.1986C116.99 11.0532 116.998 10.9121 117.011 10.7753H120.629L123.288 7.08931H134.787C135.539 7.08931 136.223 7.27318 136.843 7.63665ZM124.037 17.8309H135.214V11.3184C135.214 11.1559 135.159 11.0233 135.048 10.9207C134.936 10.8223 134.8 10.771 134.637 10.771H121.189C121.048 10.771 120.919 10.8223 120.808 10.9207C120.697 11.0233 120.641 11.1559 120.641 11.3184V21.4784H120.646L124.037 17.8309Z" fill="white"/>
</svg>
